<svg width="40" height="40" viewBox="0 0 40 40" fill="none" xmlns="http://www.w3.org/2000/svg">
<g clip-path="url(#clip0_1146_15766)">
<path d="M20 1.8C30.035 1.8 38.2 9.965 38.2 20C38.2 30.035 30.035 38.2 20 38.2C9.964 38.2 1.8 30.035 1.8 20C1.8 9.964 9.964 1.8 20 1.8ZM20 0C8.954 0 0 8.954 0 20C0 31.046 8.954 40 20 40C31.046 40 40 31.046 40 20C40 8.954 31.046 0 20 0Z" fill="#F8485E"/>
<path d="M20 31C21.1051 31 22.001 30.1042 22.001 28.999C22.001 27.8939 21.1051 26.998 20 26.998C18.8949 26.998 17.999 27.8939 17.999 28.999C17.999 30.1042 18.8949 31 20 31Z" fill="#F8485E"/>
<path d="M22 11.01C22 11.007 22.001 11.004 22.001 11C22.001 9.896 21.105 9 20 9C18.895 9 17.999 9.896 17.999 11C17.999 11.003 18 11.006 18 11.01V20.99C18 20.993 17.999 20.996 17.999 21C17.999 22.104 18.895 23 20 23C21.104 23 22.001 22.104 22.001 21C22.001 20.997 22 20.994 22 20.99V11.01Z" fill="#F8485E"/>
</g>
<defs>
<clipPath id="clip0_1146_15766">
<rect width="40" height="40" fill="white"/>
</clipPath>
</defs>
</svg>
