<svg width="24" height="24" viewBox="0 0 24 24" fill="none" xmlns="http://www.w3.org/2000/svg">
<path d="M9 20.5C9 20.776 8.776 21 8.5 21H7.5C7.224 21 7 20.776 7 20.5V19.5C7 19.224 7.224 19 7.5 19H8.5C8.776 19 9 19.224 9 19.5V20.5Z" fill="#999999"/>
<path d="M17 20.5C17 20.776 16.776 21 16.5 21H15.5C15.224 21 15 20.776 15 20.5V19.5C15 19.224 15.224 19 15.5 19H16.5C16.776 19 17 19.224 17 19.5V20.5Z" fill="#999999"/>
<path d="M13 20.5C13 20.776 12.776 21 12.5 21H11.5C11.224 21 11 20.776 11 20.5V19.5C11 19.224 11.224 19 11.5 19H12.5C12.776 19 13 19.224 13 19.5V20.5Z" fill="#999999"/>
<path d="M9 16.5C9 16.776 8.776 17 8.5 17H7.5C7.224 17 7 16.776 7 16.5V15.5C7 15.224 7.224 15 7.5 15H8.5C8.776 15 9 15.224 9 15.5V16.5Z" fill="#999999"/>
<path d="M17 16.5C17 16.776 16.776 17 16.5 17H15.5C15.224 17 15 16.776 15 16.5V15.5C15 15.224 15.224 15 15.5 15H16.5C16.776 15 17 15.224 17 15.5V16.5Z" fill="#999999"/>
<path d="M13 16.5C13 16.776 12.776 17 12.5 17H11.5C11.224 17 11 16.776 11 16.5V15.5C11 15.224 11.224 15 11.5 15H12.5C12.776 15 13 15.224 13 15.5V16.5Z" fill="#999999"/>
<path d="M9 12.5C9 12.776 8.776 13 8.5 13H7.5C7.224 13 7 12.776 7 12.5V11.5C7 11.224 7.224 11 7.5 11H8.5C8.776 11 9 11.224 9 11.5V12.5Z" fill="#999999"/>
<path d="M17 12.5C17 12.776 16.776 13 16.5 13H15.5C15.224 13 15 12.776 15 12.5V11.5C15 11.224 15.224 11 15.5 11H16.5C16.776 11 17 11.224 17 11.5V12.5Z" fill="#999999"/>
<path d="M13 12.5C13 12.776 12.776 13 12.5 13H11.5C11.224 13 11 12.776 11 12.5V11.5C11 11.224 11.224 11 11.5 11H12.5C12.776 11 13 11.224 13 11.5V12.5Z" fill="#999999"/>
<path d="M19.5 2H16.75V0.75C16.75 0.336 16.414 0 16 0C15.586 0 15.25 0.336 15.25 0.75V2H8.75V0.75C8.75 0.336 8.414 0 8 0C7.586 0 7.25 0.336 7.25 0.75V2H4.5C3.397 2 2.5 2.892 2.5 3.988V22.011C2.5 23.108 3.397 24 4.5 24H19.5C20.603 24 21.5 23.108 21.5 22.012V3.988C21.5 2.892 20.603 2 19.5 2ZM4.5 3.5H7.25V4.75C7.25 5.164 7.586 5.5 8 5.5C8.414 5.5 8.75 5.164 8.75 4.75V3.5H15.25V4.75C15.25 5.164 15.586 5.5 16 5.5C16.414 5.5 16.75 5.164 16.75 4.75V3.5H19.5C19.776 3.5 20 3.718 20 3.988V7.25H4V3.988C4 3.718 4.224 3.5 4.5 3.5ZM19.5 22.5H4.5C4.224 22.5 4 22.282 4 22.012V8.75H20V22.012C20 22.282 19.776 22.5 19.5 22.5Z" fill="#999999"/>
</svg>
