<svg width="24" height="24" viewBox="0 0 24 24" fill="none" xmlns="http://www.w3.org/2000/svg">
<g clip-path="url(#clip0_471_502)">
<path d="M6.8625 14.8053L20.91 14.1228C21.9075 14.0778 22.74 13.3428 22.8975 12.3828L23.985 5.57281C24.075 4.98781 23.91 4.38781 23.52 3.93781C23.115 3.46531 22.5225 3.19531 21.8925 3.19531H5.5425C5.31 2.14531 4.365 0.0078125 0.5625 0.0078125C0.255 0.0078125 0 0.255313 0 0.570312C0 0.885312 0.255 1.13281 0.5625 1.13281C4.41 1.13281 4.5 3.64531 4.5 3.75031C4.5 3.76531 4.5075 3.78031 4.5075 3.79531C4.5075 3.81031 4.5 3.81781 4.5075 3.83281L5.9925 13.8828C4.2525 14.4978 3.0825 16.0728 3.1875 17.7828C3.285 19.2903 4.455 20.9703 7.4625 21.1878C7.4775 21.1878 7.4925 21.1878 7.5 21.1878C7.5225 21.1878 7.5375 21.1803 7.5525 21.1803C7.8225 22.7778 9.2025 24.0003 10.875 24.0003C12.5475 24.0003 13.9275 22.7778 14.1975 21.1803C14.22 21.1803 14.235 21.1878 14.25 21.1878H16.5C16.5225 21.1878 16.5375 21.1803 16.5525 21.1803C16.8225 22.7778 18.2025 24.0003 19.875 24.0003C21.7425 24.0003 23.25 22.4928 23.25 20.6253C23.25 18.7578 21.7425 17.2503 19.875 17.2503C18.2025 17.2503 16.8225 18.4728 16.5525 20.0703C16.53 20.0703 16.515 20.0628 16.5 20.0628H14.25C14.2275 20.0628 14.2125 20.0703 14.1975 20.0703C13.9275 18.4728 12.5475 17.2503 10.875 17.2503C9.2025 17.2503 7.8225 18.4728 7.5525 20.0703C7.545 20.0703 7.545 20.0628 7.5375 20.0628C5.595 19.9278 4.3875 19.0428 4.305 17.7078C4.2375 16.5603 5.1075 15.1503 6.8625 14.8053ZM21.885 4.31281C22.185 4.31281 22.4625 4.44031 22.6575 4.65781C22.8375 4.86781 22.905 5.12281 22.8675 5.38531L21.78 12.1953C21.7125 12.6378 21.3225 12.9678 20.85 12.9903L7.095 13.6653L5.715 4.31281H21.885ZM19.875 18.3753C21.1125 18.3753 22.125 19.3878 22.125 20.6253C22.125 21.8628 21.1125 22.8753 19.875 22.8753C18.6375 22.8753 17.625 21.8628 17.625 20.6253C17.625 19.3878 18.6375 18.3753 19.875 18.3753ZM10.875 18.3753C12.1125 18.3753 13.125 19.3878 13.125 20.6253C13.125 21.8628 12.1125 22.8753 10.875 22.8753C9.6375 22.8753 8.625 21.8628 8.625 20.6253C8.625 19.3878 9.6375 18.3753 10.875 18.3753Z" fill="white"/>
</g>
<defs>
<clipPath id="clip0_471_502">
<rect width="24" height="24" fill="white"/>
</clipPath>
</defs>
</svg>
