<svg width="32" height="32" viewBox="0 0 32 32" fill="none" xmlns="http://www.w3.org/2000/svg">
<g clip-path="url(#clip0_214_32)">
<path d="M9.15 19.74L27.88 18.83C29.21 18.77 30.32 17.79 30.53 16.51L31.98 7.43C32.1 6.65 31.88 5.85 31.36 5.25C30.82 4.62 30.03 4.26 29.19 4.26H7.39C7.08 2.86 5.82 0.0100021 0.75 0.0100021C0.34 0.0100021 0 0.340002 0 0.760002C0 1.18 0.34 1.51 0.75 1.51C5.88 1.51 6 4.86 6 5C6 5.02 6.01 5.04 6.01 5.06C6.01 5.08 6 5.09 6.01 5.11L7.99 18.51C5.67 19.33 4.11 21.43 4.25 23.71C4.38 25.72 5.94 27.96 9.95 28.25C9.97 28.25 9.99 28.25 10 28.25C10.03 28.25 10.05 28.24 10.07 28.24C10.43 30.37 12.27 32 14.5 32C16.73 32 18.57 30.37 18.93 28.24C18.96 28.24 18.98 28.25 19 28.25H22C22.03 28.25 22.05 28.24 22.07 28.24C22.43 30.37 24.27 32 26.5 32C28.99 32 31 29.99 31 27.5C31 25.01 28.99 23 26.5 23C24.27 23 22.43 24.63 22.07 26.76C22.04 26.76 22.02 26.75 22 26.75H19C18.97 26.75 18.95 26.76 18.93 26.76C18.57 24.63 16.73 23 14.5 23C12.27 23 10.43 24.63 10.07 26.76C10.06 26.76 10.06 26.75 10.05 26.75C7.46 26.57 5.85 25.39 5.74 23.61C5.65 22.08 6.81 20.2 9.15 19.74ZM29.18 5.75C29.58 5.75 29.95 5.92 30.21 6.21C30.45 6.49 30.54 6.83 30.49 7.18L29.04 16.26C28.95 16.85 28.43 17.29 27.8 17.32L9.46 18.22L7.62 5.75H29.18ZM26.5 24.5C28.15 24.5 29.5 25.85 29.5 27.5C29.5 29.15 28.15 30.5 26.5 30.5C24.85 30.5 23.5 29.15 23.5 27.5C23.5 25.85 24.85 24.5 26.5 24.5ZM14.5 24.5C16.15 24.5 17.5 25.85 17.5 27.5C17.5 29.15 16.15 30.5 14.5 30.5C12.85 30.5 11.5 29.15 11.5 27.5C11.5 25.85 12.85 24.5 14.5 24.5Z" fill="#F26F21"/>
</g>
<defs>
<clipPath id="clip0_214_32">
<rect width="32" height="32" fill="white"/>
</clipPath>
</defs>
</svg>
