<svg width="24" height="24" viewBox="0 0 24 24" fill="none" xmlns="http://www.w3.org/2000/svg">
<path d="M12.9511 12.0001L20.7011 4.24912C21.0051 3.94612 21.0921 3.54112 20.8931 3.34312L20.6561 3.10612C20.4601 2.91012 20.0531 2.99512 19.7521 3.29712L12.0001 11.0491L4.24912 3.29712C3.94512 2.99412 3.54012 2.90912 3.34312 3.10612L3.10712 3.34212C2.91012 3.53912 2.99512 3.94412 3.29712 4.24812L11.0491 12.0001L3.29712 19.7531C2.99412 20.0551 2.90912 20.4601 3.10612 20.6571L3.34312 20.8931C3.53912 21.0901 3.94512 21.0051 4.24812 20.7021L12.0001 12.9501L19.7521 20.7021C20.0541 21.0061 20.4601 21.0921 20.6571 20.8941L20.8931 20.6581C21.0901 20.4611 21.0041 20.0541 20.7011 19.7531L12.9511 12.0001Z" fill="#F26F21"/>
</svg>
