<svg width="16" height="16" viewBox="0 0 16 16" fill="none" xmlns="http://www.w3.org/2000/svg">
<g clip-path="url(#clip0_724_8942)">
<path d="M11.8533 5.14667L6.85333 0.146667C6.76 0.0526667 6.63267 0 6.5 0H1.722C0.772667 0 0 0.784667 0 1.75V14.25C0 15.2147 0.772667 16 1.722 16H10.2773C11.2273 16 12 15.2147 12 14.2493V5.5C12 5.36733 11.9473 5.24 11.8533 5.14667ZM11 5.70733V6.33333H6.38933C5.99067 6.33333 5.66667 5.99667 5.66667 5.58267V1H6.29267L11 5.70733ZM10.278 15H1.722C1.32333 15 1 14.6633 1 14.2493V1.75C1 1.336 1.324 1 1.722 1H4.66667V5.58267C4.66667 6.548 5.43933 7.33333 6.38933 7.33333H11V14.2493C11 14.6633 10.676 15 10.278 15Z" fill="#F26F21"/>
<path d="M15.852 5.14667L10.852 0.146667C10.7587 0.0526667 10.6314 0 10.4987 0H7.83203C7.9647 0 8.09203 0.0526667 8.18536 0.146667L9.0387 1H10.2914L14.9987 5.70733V14.2493C14.9987 14.6633 14.6747 15 14.2767 15H13.1587C12.8814 15.5893 12.294 16 11.61 16H14.2767C15.226 16 15.9987 15.2147 15.9987 14.2493V5.5C15.9987 5.36733 15.946 5.24 15.852 5.14667Z" fill="#F26F21"/>
</g>
<defs>
<clipPath id="clip0_724_8942">
<rect width="16" height="16" fill="white"/>
</clipPath>
</defs>
</svg>
