<svg width="32" height="32" viewBox="0 0 32 32" fill="none" xmlns="http://www.w3.org/2000/svg">
<path d="M25.7 11.5969L17.4 3.99688C17.2 3.89688 17.1 3.79688 16.9 3.79688H8.9C7.3 3.79688 6 4.99688 6 6.49688V25.5969C6 27.0969 7.3 28.2969 8.9 28.2969H23.2C24.8 28.2969 26.1 27.0969 26.1 25.5969V12.1969C26 11.9969 25.9 11.6969 25.7 11.5969ZM18.4 11.5969C17.7 11.5969 17.2 11.0969 17.2 10.4969V5.99688L23.4 11.5969H18.4ZM23.1 26.5969H8.9C8.2 26.5969 7.7 26.0969 7.7 25.4969V6.49688C7.7 5.89687 8.3 5.39688 8.9 5.39688H15.6V10.5969C15.6 12.0969 16.9 13.2969 18.5 13.2969H24.5V25.5969C24.4 26.0969 23.8 26.5969 23.1 26.5969Z" fill="#F26F21"/>
</svg>
