<svg width="16" height="16" viewBox="0 0 16 16" fill="none" xmlns="http://www.w3.org/2000/svg">
<path d="M8.00001 14.2898C6.79001 14.2898 5.62001 13.9798 4.50001 13.3598C3.66001 12.8898 2.85001 12.2598 2.11001 11.4598C0.88001 10.1498 0.21001 8.82979 0.19001 8.76979C-0.0499902 8.27979 -0.0499902 7.69979 0.19001 7.20978C0.22001 7.14979 0.89001 5.82978 2.11001 4.51978C2.85001 3.73978 3.66001 3.09979 4.50001 2.63979C6.73001 1.40979 9.27001 1.40979 11.5 2.63979C12.34 3.09979 13.15 3.73978 13.89 4.53978C15.15 5.87979 15.81 7.21978 15.82 7.23978C16.06 7.71978 16.06 8.29978 15.82 8.78978C15.82 8.78978 15.15 10.1398 13.9 11.4798C13.16 12.2698 12.35 12.9098 11.51 13.3798C10.38 13.9798 9.21001 14.2898 8.00001 14.2898ZM8.00001 2.90979C7.00001 2.90979 6.02001 3.16979 5.08001 3.68979C4.35001 4.08979 3.64001 4.65979 2.98001 5.35979C1.87001 6.53978 1.28001 7.70978 1.25001 7.75979C1.17001 7.90979 1.17001 8.08978 1.25001 8.23978C1.27001 8.28978 1.87001 9.45979 2.98001 10.6398C3.64001 11.3398 4.34001 11.8998 5.08001 12.3098C6.95001 13.3398 9.05001 13.3398 10.92 12.3098C11.65 11.8998 12.36 11.3398 13.02 10.6398C14.13 9.45979 14.73 8.24978 14.74 8.23978C14.82 8.07978 14.82 7.89979 14.74 7.74978C14.73 7.72978 14.12 6.52979 13.02 5.33979C12.36 4.63979 11.65 4.07979 10.92 3.66979C9.98001 3.16979 9.00001 2.90979 8.00001 2.90979Z" fill="white"/>
<path d="M8.00005 11.0702C7.18005 11.0702 6.41005 10.7502 5.83005 10.1702C5.25005 9.59018 4.93005 8.82018 4.93005 8.00018C4.93005 6.31018 6.31005 4.93018 8.00005 4.93018C8.82005 4.93018 9.59005 5.25018 10.1701 5.83018C10.7501 6.41018 11.0701 7.18018 11.0701 8.00018C11.0701 8.82018 10.7501 9.59018 10.1701 10.1702C9.59005 10.7502 8.82005 11.0702 8.00005 11.0702ZM8.00005 6.13018C6.97005 6.13018 6.13005 6.97018 6.13005 8.00018C6.13005 8.50018 6.32005 8.97018 6.68005 9.32018C7.39005 10.0302 8.61005 10.0302 9.32005 9.32018C9.67005 8.97018 9.87005 8.50018 9.87005 8.00018C9.87005 7.50018 9.67005 7.03018 9.32005 6.68018C8.97005 6.33018 8.50005 6.13018 8.00005 6.13018Z" fill="white"/>
</svg>
