<svg width="24" height="24" viewBox="0 0 24 24" fill="none" xmlns="http://www.w3.org/2000/svg">
<g clip-path="url(#clip0_724_8918)">
<path d="M19 1C21.21 1 23 2.79 23 5V19C23 21.21 21.21 23 19 23H5C2.79 23 1 21.21 1 19V5C1 2.79 2.79 1 5 1H19ZM19 0H5C2.24 0 0 2.24 0 5V19C0 21.76 2.24 24 5 24H19C21.76 24 24 21.76 24 19V5C24 2.24 21.76 0 19 0Z" fill="#F26F21"/>
<path d="M14.7114 10.94L13.1514 13.18C12.9214 13.52 12.8114 13.98 12.8114 14.28V15.02H11.4414V14.26C11.4414 13.52 11.6314 13.04 12.0314 12.47L13.5714 10.25C13.9314 9.71999 14.2014 9.27999 14.2014 8.63999C14.2014 7.36999 13.2914 6.39999 12.0214 6.39999C10.6714 6.39999 9.82141 7.45999 9.82141 8.65999H8.44141C8.44141 6.71999 9.96141 5.17999 12.0114 5.17999C14.0014 5.17999 15.5614 6.59999 15.5614 8.63999C15.5614 9.52999 15.2014 10.21 14.7114 10.94ZM11.3114 18.82V17.22H12.9414V18.82H11.3114Z" fill="#F26F21"/>
</g>
<defs>
<clipPath id="clip0_724_8918">
<rect width="24" height="24" fill="white"/>
</clipPath>
</defs>
</svg>
