<svg width="16" height="16" viewBox="0 0 16 16" fill="none" xmlns="http://www.w3.org/2000/svg">
<g clip-path="url(#clip0_1018_2656)">
<path d="M15.5093 6.00164L8.64067 0.274969C8.45534 0.120302 8.22801 0.0429688 8.00001 0.0429688C7.77201 0.0429688 7.54467 0.120302 7.36001 0.274969L0.492674 6.00097C0.218007 6.22964 0.0500068 6.55097 0.0180068 6.90564C-0.0133265 7.2603 0.0946735 7.6063 0.32334 7.87964L0.750674 8.39097C0.980674 8.66697 1.31134 8.8283 1.66667 8.85764V14.6676C1.66667 15.403 2.26467 16.001 3.00001 16.001H5.33334C6.06867 16.001 6.66667 15.403 6.66667 14.6676V10.001C6.66667 9.81697 6.81601 9.66764 7.00001 9.66764H9.00001C9.18401 9.66764 9.33334 9.81697 9.33334 10.001V14.6676C9.33334 15.403 9.93134 16.001 10.6667 16.001H13C13.7353 16.001 14.3333 15.403 14.3333 14.6676V8.85764C14.688 8.82897 15.018 8.66764 15.2493 8.39097L15.678 7.87897C16.1487 7.31497 16.0727 6.47297 15.5093 6.00164ZM13 15.001H10.6667C10.4827 15.001 10.3333 14.851 10.3333 14.6676V10.001C10.3333 9.26564 9.73534 8.66764 9.00001 8.66764H7.00001C6.26467 8.66764 5.66667 9.26564 5.66667 10.001V14.6676C5.66667 14.851 5.51734 15.001 5.33334 15.001H3.00001C2.81601 15.001 2.66667 14.851 2.66667 14.6676V8.5283L8.00001 4.08097L13.3333 8.52764V14.6676C13.3333 14.851 13.184 15.001 13 15.001ZM14.91 7.23764L14.482 7.74964C14.4153 7.82897 14.3213 7.86964 14.2253 7.86964C14.1507 7.86964 14.0747 7.8443 14.0133 7.7923L8.00001 2.7783L1.98667 7.7923C1.92467 7.8443 1.84867 7.86964 1.77401 7.86964C1.67867 7.86964 1.58401 7.8283 1.51801 7.74964L1.09001 7.23764C0.972007 7.0963 0.99134 6.8863 1.13267 6.7683L8.00001 1.04297L14.8673 6.76897C15.0093 6.88697 15.028 7.09697 14.91 7.23764Z" fill="#F26F21"/>
</g>
<defs>
<clipPath id="clip0_1018_2656">
<rect width="16" height="16" fill="white"/>
</clipPath>
</defs>
</svg>
