<svg width="12" height="12" viewBox="0 0 12 12" fill="none" xmlns="http://www.w3.org/2000/svg">
<path d="M5.99995 0.75C7.05849 0.75 8.06585 1.16429 8.76373 1.88665C9.32895 2.4717 9.62609 3.20418 9.59995 3.975C9.59995 5.35102 8.92104 7.04313 7.63553 8.86991C6.99545 9.7843 6.34956 10.5615 5.96239 11.008C5.57595 10.5625 4.93258 9.78889 4.29899 8.88398C3.75178 8.06316 3.31764 7.28646 2.93092 6.43571C2.54016 5.58904 2.32495 4.71515 2.32495 3.975C2.32495 2.22687 4.0079 0.75 5.99995 0.75ZM5.99995 0C3.59995 0 1.57495 1.8 1.57495 3.975C1.57495 4.8 1.79995 5.775 2.24995 6.75C2.62495 7.575 3.07495 8.4 3.67495 9.3C4.72495 10.8 5.77495 11.925 5.77495 11.925C5.84995 12 5.92495 12 5.99995 12C6.07495 12 6.14995 12 6.14995 11.925C6.14995 11.925 7.19995 10.8 8.24995 9.3C9.67495 7.275 10.35 5.475 10.35 3.975C10.425 1.8 8.39995 0 5.99995 0Z" fill="black"/>
<path d="M6 6.375C4.7384 6.375 3.75 5.45251 3.75 4.27515C3.75 3.09741 4.7384 2.17493 6 2.17493C7.26196 2.17493 8.25 3.09741 8.25 4.27515C8.25 5.41333 7.21948 6.375 6 6.375ZM6 2.92493C5.15881 2.92493 4.5 3.51819 4.5 4.27515C4.5 5.0321 5.15881 5.625 6 5.625C6.81299 5.625 7.5 5.00684 7.5 4.27515C7.5 3.51819 6.84082 2.92493 6 2.92493Z" fill="black"/>
</svg>
