<svg width="12" height="12" viewBox="0 0 12 12" fill="none" xmlns="http://www.w3.org/2000/svg">
<path d="M6.00001 0.75C7.05856 0.75 8.06591 1.16429 8.76379 1.88665C9.32902 2.4717 9.62615 3.20418 9.60001 3.975C9.60001 5.35102 8.9211 7.04313 7.63559 8.86991C6.99551 9.7843 6.34962 10.5615 5.96245 11.008C5.57601 10.5625 4.93264 9.78889 4.29905 8.88398C3.75184 8.06316 3.31771 7.28646 2.93098 6.43571C2.54022 5.58904 2.32501 4.71515 2.32501 3.975C2.32501 2.22687 4.00796 0.75 6.00001 0.75ZM6.00001 0C3.60001 0 1.57501 1.8 1.57501 3.975C1.57501 4.8 1.80001 5.775 2.25001 6.75C2.62501 7.575 3.07501 8.4 3.67501 9.3C4.72501 10.8 5.77501 11.925 5.77501 11.925C5.85001 12 5.92501 12 6.00001 12C6.07501 12 6.15001 12 6.15001 11.925C6.15001 11.925 7.20001 10.8 8.25001 9.3C9.67501 7.275 10.35 5.475 10.35 3.975C10.425 1.8 8.40001 0 6.00001 0Z" fill="white"/>
<path d="M6 6.375C4.7384 6.375 3.75 5.45251 3.75 4.27515C3.75 3.09741 4.7384 2.17493 6 2.17493C7.26196 2.17493 8.25 3.09741 8.25 4.27515C8.25 5.41333 7.21948 6.375 6 6.375ZM6 2.92493C5.15881 2.92493 4.5 3.51819 4.5 4.27515C4.5 5.0321 5.15881 5.625 6 5.625C6.81299 5.625 7.5 5.00684 7.5 4.27515C7.5 3.51819 6.84082 2.92493 6 2.92493Z" fill="white"/>
</svg>
