<svg width="12" height="12" viewBox="0 0 12 12" fill="none" xmlns="http://www.w3.org/2000/svg">
<g clip-path="url(#clip0_119_1326)">
<path d="M2.05713 1.40052C2.21548 1.41553 2.72433 1.73142 3.29649 2.30358C3.85061 2.8577 4.18626 3.38509 4.19934 3.59404C4.19858 3.5946 4.19763 3.59539 4.19649 3.59647L3.49649 4.29647C2.95254 4.84042 3.73874 6.19582 4.79649 7.25358C5.67518 8.13226 6.63825 8.70002 7.25005 8.70002C7.4821 8.70002 7.64454 8.56264 7.7036 8.50358L8.4036 7.80358L8.40701 7.80017C8.60427 7.80796 9.12913 8.13933 9.68315 8.69027C9.96448 9.0185 10.2535 9.35659 10.434 9.62737C10.5736 9.83681 10.6034 9.99612 10.5972 10.0457L9.19649 11.4465C9.14629 11.4967 9.02534 11.55 8.90005 11.55C8.10848 11.55 6.13806 10.3809 3.9036 8.14647C2.77334 7.01621 1.78662 5.80532 1.1363 4.75572C0.413892 3.46571 0.447877 3.0093 0.603602 2.85358L2.05713 1.40052ZM2.05005 0.900024C1.85005 0.900024 1.75005 1.00002 1.70005 1.05002L0.250047 2.50002C-0.199953 2.95002 4.66714e-05 3.75002 0.700047 5.00002C1.35005 6.05002 2.35005 7.30002 3.55005 8.50002C5.65005 10.6 7.80005 12.05 8.90005 12.05C9.15005 12.05 9.40005 11.95 9.55005 11.8L11 10.35C11.25 10 10.95 9.50002 10.85 9.35003C10.65 9.05002 10.35 8.70002 10.05 8.35003C9.80005 8.10003 8.95005 7.30002 8.40005 7.30002C8.25005 7.30002 8.10005 7.35002 8.05005 7.45002L7.35005 8.15002C7.35005 8.15002 7.30005 8.20002 7.25005 8.20002C6.85005 8.20002 6.00005 7.75002 5.15005 6.90002C4.00005 5.75002 3.70005 4.80002 3.85005 4.65002L4.55005 3.95002C4.60005 3.90002 4.70005 3.80002 4.70005 3.60003C4.70005 3.05002 3.90005 2.20002 3.65005 1.95002C3.40005 1.70002 2.55005 0.900024 2.05005 0.900024Z" fill="black"/>
<path d="M6.10005 0C5.95005 0 5.80005 0.1 5.80005 0.3C5.80005 0.5 5.90005 0.6 6.10005 0.6C9.00005 0.65 11.35 3 11.35 5.9C11.35 6.05 11.45 6.2 11.65 6.2C11.85 6.2 11.95 6.1 11.95 5.9C11.95 2.65 9.35005 0 6.10005 0Z" fill="black"/>
<path d="M5.8501 3.8C5.8501 3.95 5.9501 4.1 6.1501 4.1C7.1001 4.1 7.8501 4.85 7.8501 5.8C7.8501 5.95 7.9501 6.1 8.1501 6.1C8.3501 6.1 8.4501 6 8.4501 5.8C8.5001 4.55 7.5001 3.5 6.2001 3.5C5.9501 3.5 5.8501 3.65 5.8501 3.8Z" fill="black"/>
<path d="M9.50005 5.90002C9.50005 6.05002 9.60005 6.20002 9.80005 6.20002C10 6.20002 10.1 6.10002 10.1 5.90002C10.1 3.70002 8.30005 1.90002 6.10005 1.90002C5.95005 1.90002 5.80005 2.00002 5.80005 2.20002C5.80005 2.40002 5.90005 2.50002 6.10005 2.50002C8.00005 2.50002 9.50005 4.00002 9.50005 5.90002Z" fill="black"/>
</g>
<defs>
<clipPath id="clip0_119_1326">
<rect width="12" height="12" fill="white"/>
</clipPath>
</defs>
</svg>
