<svg width="12" height="12" viewBox="0 0 12 12" fill="none" xmlns="http://www.w3.org/2000/svg">
<g clip-path="url(#clip0_214_70)">
<path d="M2.05713 1.40049C2.21548 1.41551 2.72433 1.73139 3.29649 2.30355C3.85061 2.85767 4.18626 3.38507 4.19934 3.59402C4.19858 3.59457 4.19763 3.59537 4.19649 3.59645L3.49649 4.29644C2.95254 4.8404 3.73874 6.1958 4.79649 7.25355C5.67518 8.13223 6.63825 8.7 7.25005 8.7C7.4821 8.7 7.64454 8.56262 7.7036 8.50356L8.4036 7.80356L8.40701 7.80014C8.60427 7.80793 9.12913 8.13931 9.68315 8.69025C9.96448 9.01848 10.2535 9.35656 10.434 9.62735C10.5736 9.83678 10.6034 9.99609 10.5972 10.0457L9.19649 11.4464C9.14629 11.4966 9.02534 11.55 8.90005 11.55C8.10848 11.55 6.13806 10.3809 3.9036 8.14644C2.77334 7.01619 1.78662 5.80529 1.1363 4.7557C0.413892 3.46568 0.447877 3.00927 0.603602 2.85355L2.05713 1.40049ZM2.05005 0.9C1.85005 0.9 1.75005 1 1.70005 1.05L0.250047 2.5C-0.199953 2.95 4.66714e-05 3.75 0.700047 5C1.35005 6.05 2.35005 7.3 3.55005 8.5C5.65005 10.6 7.80005 12.05 8.90005 12.05C9.15005 12.05 9.40005 11.95 9.55005 11.8L11 10.35C11.25 10 10.95 9.5 10.85 9.35C10.65 9.05 10.35 8.7 10.05 8.35C9.80005 8.1 8.95005 7.3 8.40005 7.3C8.25005 7.3 8.10005 7.35 8.05005 7.45L7.35005 8.15C7.35005 8.15 7.30005 8.2 7.25005 8.2C6.85005 8.2 6.00005 7.75 5.15005 6.9C4.00005 5.75 3.70005 4.8 3.85005 4.65L4.55005 3.95C4.60005 3.9 4.70005 3.8 4.70005 3.6C4.70005 3.05 3.90005 2.2 3.65005 1.95C3.40005 1.7 2.55005 0.9 2.05005 0.9Z" fill="white"/>
<path d="M6.10005 0C5.95005 0 5.80005 0.1 5.80005 0.3C5.80005 0.5 5.90005 0.6 6.10005 0.6C9.00005 0.65 11.35 3 11.35 5.9C11.35 6.05 11.45 6.2 11.65 6.2C11.85 6.2 11.95 6.1 11.95 5.9C11.95 2.65 9.35005 0 6.10005 0Z" fill="white"/>
<path d="M5.84998 3.8C5.84998 3.95 5.94998 4.1 6.14998 4.1C7.09998 4.1 7.84998 4.85 7.84998 5.8C7.84998 5.95 7.94998 6.1 8.14998 6.1C8.34998 6.1 8.44998 6 8.44998 5.8C8.49998 4.55 7.49998 3.5 6.19998 3.5C5.94998 3.5 5.84998 3.65 5.84998 3.8Z" fill="white"/>
<path d="M9.50005 5.9C9.50005 6.05 9.60005 6.2 9.80005 6.2C10 6.2 10.1 6.1 10.1 5.9C10.1 3.7 8.30005 1.9 6.10005 1.9C5.95005 1.9 5.80005 2 5.80005 2.2C5.80005 2.4 5.90005 2.5 6.10005 2.5C8.00005 2.5 9.50005 4 9.50005 5.9Z" fill="white"/>
</g>
<defs>
<clipPath id="clip0_214_70">
<rect width="12" height="12" fill="white"/>
</clipPath>
</defs>
</svg>
