<svg width="24" height="24" viewBox="0 0 24 24" fill="none" xmlns="http://www.w3.org/2000/svg">
<path d="M22.1925 21.33L16.0125 15.15C16.005 15.1425 15.9975 15.1425 15.99 15.135C17.235 13.695 18 11.8125 18 9.75C18 5.19 14.31 1.5 9.75 1.5C5.19 1.5 1.5 5.19 1.5 9.75C1.5 14.31 5.19 18 9.75 18C11.8425 18 13.7475 17.2125 15.2025 15.93C15.21 15.9375 15.21 15.945 15.2175 15.9525L21.3975 22.1325C21.51 22.245 21.6525 22.2975 21.795 22.2975C21.9375 22.2975 22.08 22.245 22.1925 22.1325C22.41 21.9075 22.41 21.555 22.1925 21.33ZM9.75 16.875C5.82 16.875 2.625 13.68 2.625 9.75C2.625 5.82 5.82 2.625 9.75 2.625C13.68 2.625 16.875 5.82 16.875 9.75C16.875 13.68 13.68 16.875 9.75 16.875Z" fill="black"/>
</svg>
