<svg width="25" height="24" viewBox="0 0 25 24" fill="none" xmlns="http://www.w3.org/2000/svg">
<path d="M22.5259 21.33L16.3459 15.15C16.3384 15.1425 16.3309 15.1425 16.3234 15.135C17.5684 13.695 18.3334 11.8125 18.3334 9.75C18.3334 5.19 14.6434 1.5 10.0834 1.5C5.52337 1.5 1.83337 5.19 1.83337 9.75C1.83337 14.31 5.52337 18 10.0834 18C12.1759 18 14.0809 17.2125 15.5359 15.93C15.5434 15.9375 15.5434 15.945 15.5509 15.9525L21.7309 22.1325C21.8434 22.245 21.9859 22.2975 22.1284 22.2975C22.2709 22.2975 22.4134 22.245 22.5259 22.1325C22.7434 21.9075 22.7434 21.555 22.5259 21.33ZM10.0834 16.875C6.15337 16.875 2.95837 13.68 2.95837 9.75C2.95837 5.82 6.15337 2.625 10.0834 2.625C14.0134 2.625 17.2084 5.82 17.2084 9.75C17.2084 13.68 14.0134 16.875 10.0834 16.875Z" fill="white"/>
</svg>
