<svg width="24" height="24" viewBox="0 0 24 24" fill="none" xmlns="http://www.w3.org/2000/svg">
<g clip-path="url(#clip0_215_363)">
<path d="M23.8123 22.8835L16.7005 15.7519C16.6919 15.7432 16.6833 15.7432 16.6746 15.7346C18.1073 14.0728 18.9877 11.9005 18.9877 9.52038C18.9877 4.2582 14.7413 0 9.49384 0C4.24634 0 0 4.2582 0 9.52038C0 14.7825 4.24634 19.0408 9.49384 19.0408C11.9018 19.0408 14.094 18.132 15.7684 16.652C15.777 16.6607 15.777 16.6693 15.7857 16.678L22.8974 23.8096C23.0269 23.9394 23.1909 24 23.3549 24C23.5188 24 23.6828 23.9394 23.8123 23.8096C24.0626 23.5499 24.0626 23.1432 23.8123 22.8835ZM9.49384 17.7425C4.97132 17.7425 1.29461 14.0555 1.29461 9.52038C1.29461 4.98521 4.97132 1.29823 9.49384 1.29823C14.0164 1.29823 17.6931 4.98521 17.6931 9.52038C17.6931 14.0555 14.0164 17.7425 9.49384 17.7425Z" fill="#F26F21"/>
</g>
<defs>
<clipPath id="clip0_215_363">
<rect width="24" height="24" fill="white"/>
</clipPath>
</defs>
</svg>
