<svg width="12" height="12" viewBox="0 0 12 12" fill="none" xmlns="http://www.w3.org/2000/svg">
<g clip-path="url(#clip0_214_77)">
<path d="M5.99038 0.500002C6.7269 0.500002 7.44617 0.647587 8.12839 0.938731C9.49168 1.51988 10.4774 2.50143 11.0584 3.8566C11.3491 4.53273 11.4965 5.24947 11.4965 5.98692C11.4965 6.72707 11.349 7.44604 11.0583 8.12381C10.4744 9.48417 9.48862 10.4681 8.12821 11.0483C7.44722 11.3389 6.72795 11.4862 5.99038 11.4862C5.25333 11.4862 4.53648 11.339 3.85972 11.0486C2.50197 10.4661 1.51792 9.48202 0.935054 8.12413C0.648684 7.45561 0.503479 6.73654 0.503479 5.98692C0.503479 5.24145 0.648684 4.5245 0.934909 3.85632C1.51546 2.50383 2.49953 1.52205 3.85973 0.938282C4.53754 0.647462 5.25439 0.500002 5.99038 0.500002ZM5.99038 1.90735e-06C5.18624 1.90735e-06 4.40305 0.161081 3.66258 0.478791C2.18056 1.11484 1.10826 2.18485 0.475449 3.6591C0.162274 4.39018 0.003479 5.17337 0.003479 5.98692C0.003479 6.80461 0.162274 7.58992 0.475449 8.32101C1.11072 9.80101 2.18303 10.8733 3.66258 11.5081C4.40198 11.8254 5.18517 11.9862 5.99038 11.9862C6.7958 11.9862 7.58109 11.8254 8.32446 11.5081C9.80708 10.8758 10.8814 9.80353 11.5177 8.32101C11.8354 7.58053 11.9965 6.79522 11.9965 5.98692C11.9965 5.18116 11.8354 4.39798 11.5177 3.6591C10.8845 2.18211 9.81015 1.1121 8.32446 0.478777C7.58002 0.161081 6.79473 1.90735e-06 5.99038 1.90735e-06Z" fill="white"/>
<path d="M8.24268 8.50195C8.17871 8.50195 8.11475 8.47754 8.06592 8.42871L5.74048 6.10352V1.8396C5.74048 1.70142 5.85229 1.5896 5.99048 1.5896C6.12866 1.5896 6.24048 1.70142 6.24048 1.8396V5.89648L8.41943 8.0752C8.51709 8.17285 8.51709 8.33105 8.41943 8.42871C8.37061 8.47754 8.30664 8.50195 8.24268 8.50195Z" fill="white"/>
</g>
<defs>
<clipPath id="clip0_214_77">
<rect width="12" height="12" fill="white"/>
</clipPath>
</defs>
</svg>
