<svg width="12" height="12" viewBox="0 0 12 12" fill="none" xmlns="http://www.w3.org/2000/svg">
<g clip-path="url(#clip0_119_1333)">
<path d="M5.99032 0.5C6.72684 0.5 7.44611 0.647585 8.12833 0.938729C9.49162 1.51987 10.4773 2.50142 11.0583 3.8566C11.349 4.53272 11.4964 5.24946 11.4964 5.98691C11.4964 6.72706 11.349 7.44604 11.0582 8.12381C10.4743 9.48417 9.48856 10.4681 8.12815 11.0483C7.44716 11.3389 6.72789 11.4862 5.99032 11.4862C5.25327 11.4862 4.53642 11.339 3.85966 11.0486C2.50191 10.4661 1.51786 9.48202 0.934993 8.12413C0.648623 7.4556 0.503418 6.73654 0.503418 5.98691C0.503418 5.24144 0.648623 4.52449 0.934848 3.85632C1.5154 2.50382 2.49947 1.52205 3.85967 0.93828C4.53748 0.64746 5.25433 0.5 5.99032 0.5ZM5.99032 0C5.18618 0 4.40299 0.161079 3.66252 0.478789C2.1805 1.11483 1.1082 2.18485 0.475388 3.6591C0.162213 4.39018 0.00341797 5.17336 0.00341797 5.98691C0.00341797 6.80461 0.162213 7.58991 0.475388 8.32101C1.11066 9.80101 2.18297 10.8733 3.66252 11.5081C4.40192 11.8254 5.18511 11.9862 5.99032 11.9862C6.79574 11.9862 7.58103 11.8254 8.3244 11.5081C9.80702 10.8758 10.8814 9.80352 11.5177 8.32101C11.8354 7.58053 11.9964 6.79522 11.9964 5.98691C11.9964 5.18116 11.8354 4.39798 11.5177 3.6591C10.8845 2.18211 9.81009 1.11209 8.3244 0.478775C7.57996 0.161079 6.79467 0 5.99032 0Z" fill="black"/>
<path d="M8.24268 8.50195C8.17871 8.50195 8.11475 8.47754 8.06592 8.42871L5.74048 6.10352V1.8396C5.74048 1.70142 5.85229 1.5896 5.99048 1.5896C6.12866 1.5896 6.24048 1.70142 6.24048 1.8396V5.89648L8.41943 8.0752C8.51709 8.17285 8.51709 8.33105 8.41943 8.42871C8.37061 8.47754 8.30664 8.50195 8.24268 8.50195Z" fill="black"/>
</g>
<defs>
<clipPath id="clip0_119_1333">
<rect width="12" height="12" fill="white"/>
</clipPath>
</defs>
</svg>
