<svg width="16" height="16" viewBox="0 0 16 16" fill="none" xmlns="http://www.w3.org/2000/svg">
<g clip-path="url(#clip0_1018_2358)">
<path d="M8 1C11.86 1 15 4.14 15 8C15 11.86 11.86 15 8 15C4.14 15 1 11.86 1 8C1 4.14 4.14 1 8 1ZM8 0C3.582 0 0 3.58133 0 8C0 12.418 3.582 16 8 16C12.418 16 16 12.418 16 8C16 3.58133 12.418 0 8 0Z" fill="#F26F21"/>
<path d="M13.0003 7.5H8.50031V3C8.50031 2.724 8.27698 2.5 8.00098 2.5C7.72498 2.5 7.50098 2.724 7.50098 3V8C7.50098 8.276 7.72498 8.5 8.00098 8.5H13.001C13.277 8.5 13.501 8.276 13.501 8C13.5003 7.72333 13.2763 7.5 13.0003 7.5Z" fill="#F26F21"/>
</g>
<defs>
<clipPath id="clip0_1018_2358">
<rect width="16" height="16" fill="white"/>
</clipPath>
</defs>
</svg>
