<svg width="12" height="12" viewBox="0 0 12 12" fill="none" xmlns="http://www.w3.org/2000/svg">
<path d="M7.67998 6.9L7.40998 6.5325C8.47498 5.97 9.21373 4.8 9.21373 3.4425C9.21748 1.545 7.77373 0 5.99998 0C4.22623 0 2.78248 1.545 2.78248 3.44625C2.78248 4.83375 3.55498 6.03 4.66498 6.5775L4.34248 6.89625C2.58748 7.5225 1.31248 9.0825 1.01248 10.98C0.989977 11.1188 1.07248 11.25 1.20373 11.295C2.66248 11.7563 4.31998 12 5.99998 12C7.67998 12 9.33748 11.7563 10.7962 11.295C10.9275 11.2538 11.01 11.1188 10.9875 10.9838C10.6875 9.09 9.42373 7.53375 7.67998 6.9ZM3.34498 3.44625C3.34498 1.85625 4.53748 0.5625 5.99998 0.5625C7.46248 0.5625 8.65498 1.85625 8.65498 3.44625C8.65498 5.03625 7.46248 6.32625 5.99998 6.32625C4.53748 6.32625 3.34498 5.0325 3.34498 3.44625ZM1.61248 10.83C1.94998 9.225 3.07123 7.92375 4.58623 7.4025C4.62748 7.3875 4.66123 7.365 4.69123 7.33875L5.16748 6.87C5.19373 6.84375 5.20873 6.8175 5.22373 6.7875C5.47123 6.855 5.72998 6.8925 5.99998 6.8925C6.30748 6.8925 6.60373 6.84375 6.88498 6.7575C6.89248 6.76875 6.89248 6.78 6.89998 6.79125L7.27873 7.30875C7.31248 7.35375 7.36123 7.39125 7.41373 7.41C8.92873 7.93125 10.05 9.2325 10.3875 10.8375C7.69498 11.625 4.30498 11.625 1.61248 10.83Z" fill="white"/>
</svg>
