<svg width="64" height="64" viewBox="0 0 64 64" fill="none" xmlns="http://www.w3.org/2000/svg">
<path d="M17.2958 54.6955C18.1464 55.1208 19.2097 55.3334 20.1666 55.3334H33.0322H41.0068H53.8724C57.9129 55.3334 61.1027 52.0373 61.1027 48.1032C61.1027 46.2956 60.3584 44.5943 59.2951 43.3184L43.7713 25.5617V5.46582H40.2625H33.7765H30.2677V25.5617L17.2958 40.3412" stroke="#F26F21" stroke-miterlimit="10" stroke-linecap="round" stroke-linejoin="round"/>
<path d="M49.3004 3.23288C49.3004 4.50881 48.1308 5.46576 46.7486 5.46576H27.2906C25.9084 5.46576 24.7388 4.50881 24.7388 3.23288C24.7388 1.95695 25.9084 1 27.2906 1H46.7486C48.1308 1 49.3004 2.06327 49.3004 3.23288Z" stroke="#F26F21" stroke-miterlimit="10" stroke-linecap="round" stroke-linejoin="round"/>
<path d="M8.36414 24.4984V58.6295C8.36414 61.0751 10.3844 63.0953 12.8299 63.0953C15.2754 63.0953 17.2956 61.0751 17.2956 58.6295V24.4984H8.36414Z" stroke="#F26F21" stroke-miterlimit="10" stroke-linecap="round" stroke-linejoin="round"/>
<path d="M23.4626 22.2655C23.4626 23.5414 22.5057 24.4983 21.2298 24.4983H4.43002C3.15409 24.4983 2.19714 23.5414 2.19714 22.2655C2.19714 20.9895 3.15409 20.0326 4.43002 20.0326H21.2298C22.3994 20.0326 23.4626 21.0959 23.4626 22.2655Z" stroke="#F26F21" stroke-miterlimit="10" stroke-linecap="round" stroke-linejoin="round"/>
<path d="M10.416 35.131C10.416 35.1444 10.4148 35.1539 10.4135 35.1602C10.4073 35.1614 10.3978 35.1626 10.3844 35.1626H8.47048C8.4571 35.1626 8.44756 35.1614 8.44131 35.1602C8.44006 35.1539 8.43884 35.1444 8.43884 35.131C8.43884 35.1176 8.44006 35.1081 8.44131 35.1018C8.44756 35.1006 8.4571 35.0994 8.47048 35.0994H10.3844C10.3978 35.0994 10.4073 35.1006 10.4135 35.1018C10.4148 35.1081 10.416 35.1176 10.416 35.131Z" fill="#002E6D" stroke="#F26F21"/>
<path d="M10.3844 40.7348H10.4138C10.4152 40.7451 10.416 40.7558 10.416 40.7665C10.416 40.7799 10.4148 40.7894 10.4135 40.7957C10.4073 40.7969 10.3978 40.7981 10.3844 40.7981H8.47048C8.4571 40.7981 8.44756 40.7969 8.44131 40.7957C8.44006 40.7894 8.43884 40.7799 8.43884 40.7665C8.43884 40.7531 8.44006 40.7436 8.44131 40.7373C8.44756 40.7361 8.4571 40.7348 8.47048 40.7348H10.3844Z" fill="#002E6D" stroke="#F26F21"/>
<path d="M10.416 46.2954C10.416 46.3088 10.4148 46.3184 10.4135 46.3246C10.4073 46.3258 10.3978 46.3271 10.3844 46.3271H8.47048C8.4571 46.3271 8.44756 46.3258 8.44131 46.3246C8.44006 46.3184 8.43884 46.3088 8.43884 46.2954C8.43884 46.2821 8.44006 46.2725 8.44131 46.2663C8.44756 46.265 8.4571 46.2638 8.47048 46.2638H10.3844C10.3978 46.2638 10.4073 46.265 10.4135 46.2663C10.4148 46.2725 10.416 46.2821 10.416 46.2954Z" fill="#002E6D" stroke="#F26F21"/>
</svg>
