<svg width="65" height="64" viewBox="0 0 65 64" fill="none" xmlns="http://www.w3.org/2000/svg">
<path d="M44.1605 63H20.7667C18.6758 63 16.9746 61.2795 16.9746 59.166V4.83403C16.9746 2.71982 18.6758 1 20.7667 1H44.1605C46.2506 1 47.9519 2.71982 47.9519 4.83403V59.166C47.9519 61.2795 46.2506 63 44.1605 63ZM20.7667 1.70359C19.0634 1.70359 17.6782 3.10803 17.6782 4.83403V59.166C17.6782 60.892 19.0634 62.2964 20.7667 62.2964H44.1605C45.8631 62.2964 47.2483 60.892 47.2483 59.166V4.83403C47.2483 3.10803 45.8631 1.70359 44.1605 1.70359H20.7667Z" fill="#F26F21" stroke="#F26F21" stroke-width="0.5"/>
<path d="M40.0322 7.2761H25.5824C25.3879 7.2761 25.2306 7.11876 25.2306 6.92431C25.2306 6.72986 25.3879 6.57251 25.5824 6.57251H40.0322C40.2259 6.57251 40.3839 6.72986 40.3839 6.92431C40.3839 7.11876 40.2259 7.2761 40.0322 7.2761Z" fill="#F26F21" stroke="#F26F21" stroke-width="0.5"/>
<path d="M35.2158 57.4277H30.3992C30.2054 57.4277 30.0474 57.2697 30.0474 57.0759C30.0474 56.8822 30.2054 56.7241 30.3992 56.7241H35.2158C35.4095 56.7241 35.5676 56.8822 35.5676 57.0759C35.5676 57.2697 35.4095 57.4277 35.2158 57.4277Z" fill="#F26F21" stroke="#F26F21" stroke-width="0.5"/>
</svg>
