<svg width="65" height="64" viewBox="0 0 65 64" fill="none" xmlns="http://www.w3.org/2000/svg">
<g clip-path="url(#clip0_66_554)">
<path d="M42.0196 35.4037L32.7448 48.2227L23.4701 35.4037C14.1745 38.1706 7.60291 44.9753 7.60291 52.9206V62.3581C7.60291 62.9284 8.06904 63.4037 8.64911 63.4037H11.8392H53.6608H56.8503C57.4206 63.4037 57.8972 62.9284 57.8972 62.3581V52.9206C57.8972 44.9753 51.3249 38.1706 42.0196 35.4037Z" stroke="#F26F21" stroke-width="1.5" stroke-miterlimit="10" stroke-linecap="round" stroke-linejoin="round"/>
<path d="M44.2187 18.8938V6.89776H44.2181C44.2161 4.60087 43.5137 2.4622 42.3463 0.666626H23.1627C21.9857 2.4622 21.3027 4.60087 21.3008 6.89776H21.3001V18.8938C19.8535 18.8938 18.6895 20.0677 18.6895 21.5045C18.6895 23.9583 21.3724 24.0996 21.4089 24.0983C22.1693 29.6888 26.9544 34 32.7545 34C38.5553 34 43.33 29.6888 44.1009 24.0983C44.1276 24.0996 46.8105 23.9792 46.8105 21.5045C46.8105 20.0677 45.6465 18.8938 44.2187 18.8938Z" stroke="#F26F21" stroke-width="1.5" stroke-miterlimit="10" stroke-linecap="round" stroke-linejoin="round"/>
<path d="M47.7375 57.6913C47.7375 58.7929 46.8521 59.6783 45.7506 59.6783C44.6484 59.6783 43.7375 58.7929 43.7375 57.6913C43.7375 56.5898 44.6484 55.6783 45.7506 55.6783C46.8521 55.6783 47.7375 56.5898 47.7375 57.6913Z" stroke="#F26F21" stroke-width="1.5" stroke-miterlimit="10" stroke-linecap="round" stroke-linejoin="round"/>
<path d="M44.2396 36.2721C48.5834 42.2591 47.3054 50.1796 46.5306 55.802" stroke="#F26F21" stroke-width="1.5" stroke-miterlimit="10" stroke-linecap="round" stroke-linejoin="round"/>
<path d="M21.3242 36.2721C19.043 39.416 18.3125 43.093 18.2451 46.6907" stroke="#F26F21" stroke-width="1.5" stroke-miterlimit="10" stroke-linecap="round" stroke-linejoin="round"/>
<path d="M26.3835 12.5834C26.3835 15.3792 24.1169 17.6459 21.3209 17.6459" stroke="#F26F21" stroke-width="1.5" stroke-miterlimit="10" stroke-linejoin="round"/>
<path d="M44.2188 17.8236C41.3112 17.8236 38.9525 15.4782 38.9525 12.5834" stroke="#F26F21" stroke-width="1.5" stroke-miterlimit="10" stroke-linejoin="round"/>
<path d="M21.3002 12.5834H44.2396" stroke="#F26F21" stroke-width="1.5" stroke-miterlimit="10" stroke-linejoin="round"/>
<path d="M30.0834 6.66663H35.4167" stroke="#F26F21" stroke-width="1.5" stroke-miterlimit="10" stroke-linecap="round" stroke-linejoin="round"/>
<path d="M32.7501 4V9.33333" stroke="#F26F21" stroke-width="1.5" stroke-miterlimit="10" stroke-linecap="round" stroke-linejoin="round"/>
<path d="M24.7477 20.5309C27.6965 18.1419 30.0855 20.5309 30.0855 20.5309" stroke="#F26F21" stroke-width="1.5" stroke-miterlimit="10" stroke-linecap="round" stroke-linejoin="round"/>
<path d="M30.0807 27.4691C33.0299 29.8581 35.4192 27.4691 35.4192 27.4691" stroke="#F26F21" stroke-width="1.5" stroke-miterlimit="10" stroke-linecap="round" stroke-linejoin="round"/>
<path d="M40.7526 20.5309C37.8034 18.1419 35.4141 20.5309 35.4141 20.5309" stroke="#F26F21" stroke-width="1.5" stroke-miterlimit="10" stroke-linecap="round" stroke-linejoin="round"/>
<path d="M16.0833 59.9446H13.4166V52C13.4166 49.0546 15.8046 46.6666 18.7503 46.6666C21.6956 46.6666 24.0833 49.0546 24.0833 52V59.9446H21.4166" stroke="#F26F21" stroke-width="1.5" stroke-miterlimit="10" stroke-linecap="round" stroke-linejoin="round"/>
</g>
<defs>
<clipPath id="clip0_66_554">
<rect width="64" height="64" fill="white" transform="translate(0.75)"/>
</clipPath>
</defs>
</svg>
