<svg width="64" height="64" viewBox="0 0 64 64" fill="none" xmlns="http://www.w3.org/2000/svg">
<g clip-path="url(#clip0_29_17)">
<path d="M62.9769 31.567H57.3909C59.1646 28.9691 60.126 25.8994 60.1232 22.6781C60.1204 18.4896 58.4998 14.5559 55.562 11.6017C52.6201 8.63502 48.714 7 44.5625 7C40.7227 7 37.0345 8.4249 34.156 11.0354L31.2638 13.9269L28.9908 11.6184C26.0433 8.66424 22.1386 7.03757 17.994 7.03757C13.8507 7.03757 9.94468 8.66424 6.99584 11.6198C1.63607 17.0453 1.03196 25.4653 5.16282 31.5642H0.356129C-0.0245441 31.5642 -0.333496 31.8759 -0.333496 32.26C-0.333496 32.644 -0.0245441 32.9557 0.356129 32.9557H6.23174C6.48 33.2451 6.72551 33.536 6.99722 33.8101L30.7727 57.7968C30.9079 57.9332 31.0845 58 31.261 58C31.4375 58 31.6141 57.9318 31.7493 57.7968L55.562 33.7934C55.8282 33.5248 56.0696 33.241 56.3137 32.9571H62.9769C63.3576 32.9571 63.6665 32.6454 63.6665 32.2614C63.6665 31.8773 63.3576 31.567 62.9769 31.567ZM7.97097 12.6064C10.6578 9.91381 14.2176 8.43047 17.9954 8.43047C21.7731 8.43047 25.333 9.91381 28.017 12.6036L30.7727 15.4019C31.0417 15.6719 31.4762 15.6746 31.7479 15.4047L35.1036 12.047C37.7062 9.68978 41.0647 8.3915 44.5639 8.3915C48.3472 8.3915 51.9056 9.88041 54.5897 12.5855C57.2654 15.2781 58.7426 18.8626 58.7453 22.6781C58.7495 25.9467 57.6626 29.0428 55.6765 31.5656H44.2535C43.9956 31.5656 43.7612 31.7103 43.6425 31.9399L42.2895 34.5643L38.7586 26.5506C38.651 26.3057 38.4138 26.1457 38.149 26.1373C37.88 26.1429 37.6373 26.2765 37.5159 26.5144L34.9422 31.5656H31.2913C30.9962 31.5656 30.7341 31.7548 30.639 32.0373L28.1867 39.2898L22.4269 23.1498C22.3304 22.8784 22.0779 22.6948 21.7911 22.6892C21.5069 22.6892 21.2449 22.8576 21.1387 23.1247L17.7706 31.5642H6.87171C2.49259 25.9662 2.85257 17.7855 7.97097 12.6064ZM34.2816 53.2786L31.261 56.3232L8.10062 32.9585H18.2312C18.5126 32.9585 18.7664 32.786 18.8712 32.523L21.7373 25.34L27.5508 41.6304C27.6487 41.9073 27.908 42.0909 28.1991 42.0909C28.2004 42.0909 28.2032 42.0909 28.2046 42.0909C28.497 42.0882 28.7563 41.8989 28.8515 41.6192L31.7796 32.9585H35.3574C35.6167 32.9585 35.8525 32.8138 35.9698 32.5814L38.0773 28.4445L41.604 36.4484C41.7116 36.6933 41.9488 36.8533 42.2123 36.8617C42.4633 36.845 42.7226 36.7225 42.8453 36.4874L44.6673 32.9585H54.4379L34.2816 53.2786Z" fill="#F26F21"/>
</g>
<defs>
<clipPath id="clip0_29_17">
<rect width="64" height="64" fill="white"/>
</clipPath>
</defs>
</svg>
