<svg width="64" height="64" viewBox="0 0 64 64" fill="none" xmlns="http://www.w3.org/2000/svg">
<g clip-path="url(#clip0_13_296)">
<path d="M7.99395 64C7.94556 64 7.89717 63.9957 7.84877 63.9842C7.46446 63.9039 7.2168 63.5254 7.2965 63.1368C7.32497 63.002 10.055 49.6884 10.055 46.9812C9.53688 43.1284 7.66658 40.7438 5.68668 38.2202C3.4463 35.3639 0.908435 32.1247 0.0942697 26.2286C-0.490734 19.3273 1.6614 12.8361 6.14927 7.91361C10.7354 2.88498 17.2629 0 24.0595 0C31.7998 0 38.4426 2.65986 42.29 7.29847C45.5096 11.18 46.6241 16.1527 45.605 22.0833C47.5635 26.7477 49.1364 28.4167 49.9875 29.3201C50.4032 29.7631 50.7049 30.0829 50.8487 30.5174C51.2615 31.7519 50.8202 32.7155 49.6417 33.1614C48.5599 33.4468 47.3315 33.854 46.9045 34.0963C46.4206 35.9934 45.9067 38.4381 46.0035 40.9216C46.0548 42.2881 46.2355 43.7492 46.395 45.0369C46.5629 46.3976 46.6953 47.473 46.6312 48.0868C46.1872 50.4799 43.2678 50.272 40.6958 50.0942C39.2497 49.9938 37.6071 49.8777 37.0534 50.2992C35.8322 51.2356 35.6044 61.4864 35.8649 63.0694C35.929 63.4594 35.667 63.8294 35.2799 63.8939C34.887 63.9627 34.5241 63.6931 34.4615 63.3046C34.3732 62.7611 33.9533 50.8757 36.1923 49.1579C37.1716 48.4094 38.9337 48.5341 40.794 48.6632C43.1924 48.8309 45.0371 48.8826 45.2235 47.8788C45.262 47.4874 45.1253 46.3833 44.9801 45.2147C44.8179 43.8969 44.6328 42.4043 44.5787 40.9761C44.472 38.2015 45.0613 35.5202 45.5879 33.4955C45.6164 33.3866 45.6705 33.2848 45.7459 33.1987C46.2484 32.6338 48.1329 32.0774 49.2118 31.795C49.5264 31.6731 49.6872 31.5426 49.4979 30.9748C49.4524 30.8386 49.2203 30.5919 48.9513 30.308C48.0261 29.3258 46.3039 27.4976 44.2087 22.4432C44.156 22.3155 44.1404 22.175 44.1645 22.0388C45.1666 16.4524 44.1674 11.8023 41.1954 8.21759C37.674 3.96899 31.2674 1.43388 24.0595 1.43388C17.66 1.43388 11.5139 4.14966 7.19687 8.88435C2.98228 13.5072 0.9611 19.6098 1.50625 26.0695C2.26206 31.5426 4.57076 34.4849 6.8026 37.3312C8.90776 40.0154 10.8948 42.5505 11.4712 46.8866C11.4769 49.8347 8.80385 62.873 8.68998 63.4279C8.62166 63.7677 8.32417 64 7.99395 64Z" fill="#F26F21"/>
<path d="M51 42C51.5523 42 52 41.5523 52 41C52 40.4477 51.5523 40 51 40C50.4477 40 50 40.4477 50 41C50 41.5523 50.4477 42 51 42Z" fill="#F26F21"/>
<path d="M56 36C56.5523 36 57 35.5523 57 35C57 34.4477 56.5523 34 56 34C55.4477 34 55 34.4477 55 35C55 35.5523 55.4477 36 56 36Z" fill="#F26F21"/>
<path d="M54.5 29C55.3284 29 56 28.5523 56 28C56 27.4477 55.3284 27 54.5 27C53.6716 27 53 27.4477 53 28C53 28.5523 53.6716 29 54.5 29Z" fill="#F26F21"/>
<path d="M60 32C60.5523 32 61 31.3284 61 30.5C61 29.6716 60.5523 29 60 29C59.4477 29 59 29.6716 59 30.5C59 31.3284 59.4477 32 60 32Z" fill="#F26F21"/>
<path d="M60 41C60.5523 41 61 40.5523 61 40C61 39.4477 60.5523 39 60 39C59.4477 39 59 39.4477 59 40C59 40.5523 59.4477 41 60 41Z" fill="#F26F21"/>
<path d="M57.5 45C58.3284 45 59 44.5523 59 44C59 43.4477 58.3284 43 57.5 43C56.6716 43 56 43.4477 56 44C56 44.5523 56.6716 45 57.5 45Z" fill="#F26F21"/>
<path d="M53 51C53.5523 51 54 50.3284 54 49.5C54 48.6716 53.5523 48 53 48C52.4477 48 52 48.6716 52 49.5C52 50.3284 52.4477 51 53 51Z" fill="#F26F21"/>
<path d="M63 52C63.5523 52 64 51.5523 64 51C64 50.4477 63.5523 50 63 50C62.4477 50 62 50.4477 62 51C62 51.5523 62.4477 52 63 52Z" fill="#F26F21"/>
<path d="M63 26C63.5523 26 64 25.5523 64 25C64 24.4477 63.5523 24 63 24C62.4477 24 62 24.4477 62 25C62 25.5523 62.4477 26 63 26Z" fill="#F26F21"/>
<path d="M58.5 20C59.3284 20 60 19.5523 60 19C60 18.4477 59.3284 18 58.5 18C57.6716 18 57 18.4477 57 19C57 19.5523 57.6716 20 58.5 20Z" fill="#F26F21"/>
<path d="M51 19C51.5523 19 52 18.5523 52 18C52 17.4477 51.5523 17 51 17C50.4477 17 50 17.4477 50 18C50 18.5523 50.4477 19 51 19Z" fill="#F26F21"/>
<path d="M61.5 13C62.3284 13 63 12.3284 63 11.5C63 10.6716 62.3284 10 61.5 10C60.6716 10 60 10.6716 60 11.5C60 12.3284 60.6716 13 61.5 13Z" fill="#F26F21"/>
<path d="M55 10C55.5523 10 56 9.55228 56 9C56 8.44772 55.5523 8 55 8C54.4477 8 54 8.44772 54 9C54 9.55228 54.4477 10 55 10Z" fill="#F26F21"/>
<path d="M56 58C56.5523 58 57 57.5523 57 57C57 56.4477 56.5523 56 56 56C55.4477 56 55 56.4477 55 57C55 57.5523 55.4477 58 56 58Z" fill="#F26F21"/>
</g>
<defs>
<clipPath id="clip0_13_296">
<rect width="64" height="64" fill="white"/>
</clipPath>
</defs>
</svg>
