<svg width="64" height="64" viewBox="0 0 64 64" fill="none" xmlns="http://www.w3.org/2000/svg">
<path fill-rule="evenodd" clip-rule="evenodd" d="M40.4557 41.9405V41.4405H39.9557H26.8885H26.3885V41.9405V62.897C26.3885 63.1162 26.3184 63.2592 26.2332 63.3454C26.1486 63.4311 26.0107 63.5 25.7996 63.5H11.6434C11.4323 63.5 11.2943 63.4311 11.2097 63.3454C11.1246 63.2592 11.0545 63.1162 11.0545 62.897V26.4989V25.9989H10.5545H4.02085C3.81314 25.9989 3.57951 25.8229 3.52624 25.607C3.45884 25.334 3.52118 25.08 3.7076 24.8812L33.0783 0.640947C33.3311 0.453018 33.622 0.453018 33.8748 0.640947L63.2463 24.8819C63.3657 25.0065 63.4433 25.1291 63.4782 25.2351C63.5107 25.3339 63.5076 25.4171 63.464 25.5055L63.4399 25.5543L63.4269 25.607C63.3736 25.8229 63.14 25.9989 62.9323 25.9989H56.3986H55.8986V26.4989V62.853C55.8553 63.0776 55.7649 63.2345 55.6604 63.3333C55.555 63.433 55.4081 63.5 55.2008 63.5H41.0447C40.8335 63.5 40.6956 63.4311 40.611 63.3454C40.5258 63.2592 40.4557 63.1162 40.4557 62.897V41.9405ZM41.6336 61.7941V62.2941H42.1336H54.1119H54.6119V61.7941V25.396C54.6119 25.1768 54.682 25.0338 54.7672 24.9476C54.8517 24.8619 54.9897 24.793 55.2008 24.793H59.7743H61.1667L60.0924 23.9072L33.7402 2.17864L33.4221 1.91636L33.104 2.17864L6.75178 23.9072L5.67752 24.793H7.06987H11.6434C11.8545 24.793 11.9925 24.8619 12.0771 24.9476C12.1622 25.0338 12.2323 25.1768 12.2323 25.396V61.7941V62.2941H12.7323H24.7106H25.2106V61.7941V40.8376C25.2106 40.6184 25.2807 40.4754 25.3659 40.3892C25.4505 40.3035 25.5884 40.2346 25.7996 40.2346H41.0447C41.2558 40.2346 41.3937 40.3035 41.4783 40.3892C41.5635 40.4754 41.6336 40.6184 41.6336 40.8376V61.7941Z" fill="#F26F21"/>
</svg>
