<svg width="64" height="64" viewBox="0 0 64 64" fill="none" xmlns="http://www.w3.org/2000/svg">
<path d="M23.584 7.04667C23.2493 7.19867 23.1 7.59333 23.2507 7.92933C23.4027 8.264 23.7947 8.41333 24.1333 8.26267C29.4947 5.84133 34.9333 5.84133 40.2907 8.26267C40.38 8.30267 40.4733 8.32133 40.5653 8.32133C40.8187 8.32133 41.0613 8.176 41.1733 7.92933C41.324 7.59333 41.1747 7.19867 40.84 7.04667C35.1133 4.46133 29.308 4.46133 23.584 7.04667Z" fill="#F26F21"/>
<path d="M45.2826 4.28801C45.372 4.32801 45.4653 4.34667 45.5573 4.34667C45.8106 4.34667 46.0533 4.20134 46.1653 3.95467C46.316 3.62001 46.1666 3.22534 45.832 3.07334C36.7946 -1.00799 27.6306 -1.00933 18.592 3.07334C18.256 3.22534 18.1066 3.62001 18.2586 3.95467C18.4093 4.29067 18.8053 4.44134 19.14 4.28801C27.8173 0.370674 36.6133 0.372008 45.2826 4.28801Z" fill="#F26F21"/>
<path d="M50.6813 61.9174C50.616 61.6734 49.032 55.9494 45.0773 55.9494C42.9467 55.9494 41.6693 57.9307 40.5427 59.68C39.552 61.216 38.6173 62.6667 37.348 62.6667C35.6307 62.6667 34.1067 61.1133 33.28 60.0774C34.832 59.84 36.252 59.1347 37.284 58.0494C38.632 56.7013 39.3733 54.9 39.3733 52.976V37.1173C39.3733 35.6213 40.0667 34.2374 41.264 33.3267C42.5187 32.4147 43.5627 31.1707 44.2893 29.7187C44.9493 28.3387 45.3267 26.8827 45.3827 25.48V14.816C45.3827 14.6387 45.312 14.4694 45.1867 14.344L45.024 14.1814C45.0027 14.16 44.9813 14.1414 44.956 14.1227C43.1493 12.7534 41.0987 11.6814 38.8707 10.9374C34.74 9.52402 29.788 9.52535 25.6693 10.936C23.4333 11.6814 21.384 12.7534 19.564 14.132L19.2933 14.348C19.1347 14.4747 19.0427 14.6654 19.0427 14.8694V25.56C19.1027 27.0827 19.4747 28.5054 20.1413 29.7827C20.8613 31.2227 21.9053 32.4667 23.148 33.372C24.3573 34.2893 25.0507 35.676 25.0507 37.172V52.9774C25.0507 54.84 25.7893 56.6373 27.14 58.0507C28.3227 59.2333 29.8453 59.9547 31.584 60.14C31.6173 60.144 31.64 60.1454 31.6707 60.1493C32.304 61.0827 34.5027 64 37.348 64C39.344 64 40.5227 62.1707 41.6627 60.4027C42.696 58.7987 43.6733 57.2827 45.0773 57.2827C48.0107 57.2827 49.3813 62.2133 49.3947 62.2627C49.4907 62.62 49.8627 62.8293 50.2107 62.7333C50.5667 62.6373 50.7773 62.272 50.6813 61.9174ZM26.384 52.976V37.172C26.384 35.2547 25.4987 33.4827 23.944 32.3027C22.876 31.5253 21.9493 30.42 21.3293 29.1774C20.7493 28.0667 20.428 26.832 20.376 25.5347V15.192L20.3827 15.1867C22.072 13.9067 23.9933 12.9027 26.096 12.2014C29.9453 10.884 34.5813 10.8827 38.444 12.2027C40.4987 12.888 42.384 13.8667 44.0507 15.1107V25.4547C44.0027 26.6507 43.6693 27.9267 43.092 29.1347C42.4747 30.368 41.548 31.4747 40.4693 32.2587C38.9267 33.432 38.0413 35.2027 38.0413 37.12V52.98C38.0413 54.548 37.4387 56.0134 36.3307 57.1213C35.4373 58.0614 34.1987 58.6614 32.8387 58.8147C32.5547 58.8467 32.4053 58.8627 32.2133 58.8627C32.1173 58.8627 31.9507 58.8414 31.688 58.8134C30.2947 58.664 29.048 58.0747 28.0933 57.12C26.9907 55.9654 26.384 54.4947 26.384 52.976Z" fill="#F26F21"/>
</svg>
