<svg width="64" height="64" viewBox="0 0 64 64" fill="none" xmlns="http://www.w3.org/2000/svg">
<g clip-path="url(#clip0_13_282)">
<path d="M63.8054 11.9334L57.9361 6.06409L55.4348 3.56142L55.4334 3.56009L52.0668 0.194756C51.8068 -0.0652441 51.3841 -0.0652441 51.1241 0.194756C50.8641 0.454756 50.8641 0.877423 51.1241 1.13742L54.0201 4.03342L48.0308 10.0228L45.1348 7.12676C44.8841 6.87609 44.4414 6.87609 44.1921 7.12676L37.6988 13.6201C37.6988 13.6201 37.6974 13.6214 37.6961 13.6214C37.6948 13.6214 37.6948 13.6228 37.6948 13.6241L28.7734 22.5468C28.7734 22.5468 28.7734 22.5468 28.7721 22.5468C28.7708 22.5468 28.7721 22.5468 28.7721 22.5481L24.3121 27.0081C24.3121 27.0081 24.3108 27.0081 24.3108 27.0094C24.3108 27.0108 24.3108 27.0108 24.3094 27.0108L19.8494 31.4708C19.8494 31.4708 19.8481 31.4708 19.8481 31.4721C19.8481 31.4734 19.8481 31.4734 19.8468 31.4734L11.2854 40.0348C9.86809 41.4521 9.86809 43.7601 11.2854 45.1788L11.7934 45.6868L6.39209 51.0894C6.13209 51.3494 6.13209 51.7721 6.39209 52.0321L8.70942 54.3481L0.194756 62.8628C-0.0652441 63.1228 -0.0652441 63.5454 0.194756 63.8054C0.325422 63.9348 0.496089 64.0001 0.666756 64.0001C0.837422 64.0001 1.00809 63.9348 1.13876 63.8054L9.65342 55.2908L11.9708 57.6068C12.1014 57.7374 12.2721 57.8014 12.4428 57.8014C12.6134 57.8014 12.7841 57.7361 12.9148 57.6068L18.3161 52.2054L18.8254 52.7148C19.5348 53.4241 20.4654 53.7788 21.3974 53.7788C22.3294 53.7788 23.2601 53.4241 23.9694 52.7148L56.8748 19.8081C57.1348 19.5481 57.1348 19.1254 56.8748 18.8654L53.9788 15.9694L59.9681 9.98009L62.8641 12.8761C62.9948 13.0068 63.1654 13.0708 63.3361 13.0708C63.5068 13.0708 63.6774 13.0054 63.8081 12.8761C64.0654 12.6161 64.0654 12.1948 63.8054 11.9334ZM12.4414 56.1934L7.80676 51.5601L12.7374 46.6294L17.3721 51.2641L12.4414 56.1934ZM23.0241 51.7721C22.1254 52.6708 20.6628 52.6708 19.7654 51.7721L18.7868 50.7934L18.7854 50.7921L13.2081 45.2148L13.2068 45.2134L12.2294 44.2361C11.3321 43.3374 11.3321 41.8748 12.2294 40.9774L15.8588 37.3481L18.4681 39.9574C18.5988 40.0881 18.7694 40.1521 18.9401 40.1521C19.1108 40.1521 19.2814 40.0868 19.4121 39.9574C19.6721 39.6974 19.6721 39.2748 19.4121 39.0148L16.8001 36.4054L20.3188 32.8868L22.9281 35.4961C23.0588 35.6268 23.2294 35.6908 23.4001 35.6908C23.5708 35.6908 23.7414 35.6254 23.8721 35.4961C24.1321 35.2361 24.1321 34.8134 23.8721 34.5534L21.2628 31.9441L24.7828 28.4241L27.3921 31.0334C27.5228 31.1641 27.6934 31.2281 27.8641 31.2281C28.0348 31.2281 28.2054 31.1628 28.3361 31.0334C28.5961 30.7734 28.5961 30.3508 28.3361 30.0908L25.7268 27.4814L29.2468 23.9614L31.8561 26.5708C31.9868 26.7014 32.1574 26.7654 32.3281 26.7654C32.4988 26.7654 32.6694 26.7001 32.8001 26.5708C33.0601 26.3108 33.0601 25.8881 32.8001 25.6281L30.1908 23.0188L33.7094 19.5001L36.3188 22.1094C36.4494 22.2401 36.6201 22.3041 36.7908 22.3041C36.9614 22.3041 37.1321 22.2388 37.2628 22.1094C37.5228 21.8494 37.5228 21.4268 37.2628 21.1668L34.6534 18.5574L38.1721 15.0388L40.7828 17.6481C40.9134 17.7788 41.0841 17.8428 41.2548 17.8428C41.4254 17.8428 41.5961 17.7774 41.7268 17.6481C41.9868 17.3881 41.9868 16.9654 41.7268 16.7054L39.1161 14.0961L44.6694 8.54276L50.0668 13.9401L52.5681 16.4428L52.5694 16.4441L55.4628 19.3374L23.0241 51.7721ZM59.0241 9.03876L53.0348 15.0281L51.0041 12.9974L48.9734 10.9668L54.9628 4.97742L56.9934 7.00809L59.0241 9.03876Z" fill="#F26F21"/>
</g>
<defs>
<clipPath id="clip0_13_282">
<rect width="64" height="64" fill="white"/>
</clipPath>
</defs>
</svg>
