<svg width="64" height="64" viewBox="0 0 64 64" fill="none" xmlns="http://www.w3.org/2000/svg">
<path d="M61 19.7142C61 18.0781 59.6776 16.748 58.0525 16.748H55.4516C51.4264 10.409 44.9877 5.85167 37.7257 4.2169C36.7223 1.74654 34.3113 0 31.5 0C28.6868 0 26.2751 1.74848 25.273 4.22079C18.0078 5.85752 11.5755 10.4045 7.54836 16.748H4.94755C3.32171 16.748 2 18.0787 2 19.7142C2 21.2625 3.1887 22.5224 4.69379 22.6549C3.63745 25.6873 3.09508 28.8633 3.09508 32.1101C3.09508 44.6257 11.0015 55.5142 22.8039 59.3244V61.0339C22.8039 62.67 24.1263 64 25.7515 64C27.3767 64 28.6997 62.6693 28.6997 61.0339V60.5466C29.6243 60.6375 30.5618 60.6941 31.5 60.6941C32.4388 60.6941 33.3757 60.6375 34.3003 60.5466V61.0339C34.3003 62.67 35.6227 64 37.2479 64C38.8731 64 40.1961 62.6693 40.1961 61.0339V59.325C51.9992 55.5149 59.9049 44.6263 59.9049 32.1108C59.9049 28.8646 59.3625 25.688 58.3062 22.6549C59.8119 22.5224 61 21.2619 61 19.7142ZM31.5 0.973979C34.6742 0.973979 37.2569 3.57299 37.2569 6.76718C37.2569 9.96136 34.6742 12.5604 31.5 12.5604C28.3252 12.5604 25.7431 9.96136 25.7431 6.76718C25.7431 3.57299 28.3252 0.973979 31.5 0.973979ZM24.9373 5.30393C24.8333 5.77565 24.7746 6.26427 24.7746 6.76718C24.7746 10.4994 27.7912 13.535 31.5 13.535C35.2082 13.535 38.2254 10.4994 38.2254 6.76718C38.2254 6.26427 38.1667 5.77565 38.0627 5.30393C44.65 6.93546 50.4915 11.0562 54.2913 16.7474H19.9623C19.1203 15.5499 17.736 14.7637 16.1708 14.7637C14.6057 14.7637 13.2213 15.5492 12.3787 16.7474H8.70865C12.5111 11.0516 18.3468 6.93611 24.9373 5.30393ZM16.1708 23.1383C14.1434 23.1383 12.4943 21.4789 12.4943 19.4387C12.4943 17.3984 14.144 15.739 16.1708 15.739C18.1976 15.739 19.8473 17.3991 19.8473 19.4387C19.8473 21.4782 18.1976 23.1383 16.1708 23.1383ZM2.96788 19.7142C2.96788 18.6161 3.8557 17.7227 4.9469 17.7227H11.8538C11.6439 18.2548 11.5251 18.8324 11.5251 19.4393C11.5251 20.2619 11.7388 21.0344 12.1114 21.7063H5.34916C5.34916 21.7063 5.34916 21.7063 5.34852 21.7063H4.9469C3.8557 21.7056 2.96788 20.8122 2.96788 19.7142ZM4.06296 32.1101C4.06296 28.8672 4.62083 25.6977 5.71074 22.6803H12.832C13.6772 23.5613 14.8607 24.113 16.1708 24.113C17.4809 24.113 18.6645 23.562 19.5097 22.6803H22.8033V48.1278C21.6133 48.9751 20.8327 50.3682 20.8327 51.9432C20.8327 53.5182 21.6133 54.9113 22.8033 55.7585V58.2984C11.5677 54.5325 4.06296 44.0948 4.06296 32.1101ZM29.1542 51.9432C29.1542 53.9834 27.5045 55.6422 25.4777 55.6422C23.4509 55.6422 21.8012 53.9828 21.8012 51.9432C21.8012 49.9036 23.4503 48.2435 25.4777 48.2435C27.5052 48.2435 29.1542 49.9036 29.1542 51.9432ZM25.7515 63.0254C24.6603 63.0254 23.7725 62.132 23.7725 61.0339V56.2868C24.3013 56.498 24.8753 56.6175 25.4784 56.6175C26.2958 56.6175 27.0635 56.4024 27.7318 56.0275V61.0339C27.7311 62.132 26.8427 63.0254 25.7515 63.0254ZM28.6997 59.568V55.3031C29.5752 54.4525 30.1234 53.2622 30.1234 51.9432C30.1234 50.6242 29.5759 49.4338 28.6997 48.5833V40.861H34.3003V59.568C32.4537 59.7571 30.5463 59.7571 28.6997 59.568ZM40.2593 27.8594C42.2868 27.8594 43.9359 29.5189 43.9359 31.5591C43.9359 33.5994 42.2861 35.2588 40.2593 35.2588C38.2325 35.2588 36.5828 33.5987 36.5828 31.5591C36.5828 29.5196 38.2325 27.8594 40.2593 27.8594ZM40.1967 58.2984V36.2302C40.218 36.2302 40.2387 36.2335 40.26 36.2335C42.8214 36.2335 44.905 34.1361 44.905 31.5591C44.905 28.9822 42.8208 26.8848 40.26 26.8848C40.2387 26.8848 40.218 26.8881 40.1967 26.8881V22.6809H57.2893C58.3792 25.699 58.937 28.8685 58.937 32.1108C58.937 44.0942 51.4323 54.5325 40.1967 58.2984ZM58.0525 21.7056H39.7125C39.4451 21.7056 39.2282 21.924 39.2282 22.193V27.0044C37.1626 27.478 35.6143 29.3383 35.6143 31.5585C35.6143 33.7787 37.162 35.6389 39.2282 36.1126V61.0332C39.2282 62.1313 38.3397 63.0247 37.2485 63.0247C36.1573 63.0247 35.2695 62.1313 35.2695 61.0332V40.3737C35.2695 40.1047 35.0526 39.8864 34.7852 39.8864H28.2154C27.9481 39.8864 27.7311 40.1047 27.7311 40.3737V47.8595C27.0629 47.4846 26.2951 47.2695 25.4777 47.2695C24.8753 47.2695 24.3006 47.3891 23.7718 47.6002V22.193C23.7718 21.924 23.5549 21.7056 23.2875 21.7056H20.2296C20.6015 21.0338 20.8159 20.2612 20.8159 19.4387C20.8159 18.8324 20.6971 18.2542 20.4872 17.722H58.0525C59.1437 17.722 60.0315 18.6154 60.0315 19.7135C60.0315 20.8116 59.1437 21.7056 58.0525 21.7056Z" fill="#F26F21"/>
</svg>
