<svg width="155" height="48" viewBox="0 0 155 48" fill="none" xmlns="http://www.w3.org/2000/svg">
<g clip-path="url(#clip0_214_48)">
<path d="M74.12 18.73V25.76H70.45V22.19H52.48V18.73H74.12Z" fill="#233C7E"/>
<path d="M82.4 3.57V9.38H91.76V12.84H82.4V18.68H93.6V22.14H78.73V0.120003H93.6V3.57H82.4Z" fill="#233C7E"/>
<path d="M113.27 0.120003V22.13H109.57V12.85H100.97V18.73H97.3V0.120003H100.97V9.4H109.57V0.120003H113.27Z" fill="#233C7E"/>
<path d="M134.8 3.57H127.68V22.13H123.98V3.57H116.86V0.120003H134.81V3.57H134.8Z" fill="#233C7E"/>
<path d="M154.01 4.96C154.29 5.72 154.43 6.49 154.45 7.27C154.45 8.05 154.32 8.81 154.05 9.56C153.79 10.31 153.41 11 152.92 11.61C152.29 12.47 151.46 13.15 150.44 13.66C149.42 14.17 148.34 14.43 147.2 14.43H142.04V22.13H138.37V0.120003H147.2C148 0.120003 148.74 0.240003 149.43 0.490003C150.9 0.940003 152.04 1.74 152.86 2.9C153.36 3.51 153.74 4.2 154.01 4.96ZM150.7 7.39C150.7 6.37 150.39 5.51 149.78 4.82C149.46 4.46 149.05 4.16 148.57 3.93C148.09 3.71 147.63 3.59 147.18 3.59H142.05V10.96H147.18C147.67 10.96 148.16 10.83 148.66 10.58C149.16 10.33 149.58 9.97 149.93 9.53C150.44 8.86 150.7 8.15 150.7 7.39Z" fill="#233C7E"/>
<path d="M56.15 0.120003H52.48V15.15H56.15V0.120003Z" fill="#233C7E"/>
<path d="M71.68 0.120003H68.01V15.15H71.68V0.120003Z" fill="#233C7E"/>
<path d="M56.15 25.75H52.48V47.66H56.15V25.75Z" fill="#233C7E"/>
<path d="M74.14 29.34H70.48V47.66H74.14V29.34Z" fill="#233C7E"/>
<path d="M93.6 47.66H89.9V29.1H82.18L82.14 41.45C81.9 43.51 81.33 45.07 80.44 46.13C79.55 47.19 78.36 47.66 76.69 47.66C76.48 47.66 76.18 47.66 75.57 47.66V44.39C76.61 44.37 77.37 44.05 77.86 43.43C78.35 42.81 78.67 41.9 78.81 40.7L78.83 25.66H93.6V47.66Z" fill="#233C7E"/>
<path d="M125 32.33C125.39 33.64 125.6 35.09 125.64 36.66C125.6 38.23 125.38 39.67 124.98 40.97C124.58 42.27 123.96 43.47 123.1 44.55C122.14 45.73 120.97 46.62 119.57 47.23C118.17 47.83 116.68 48.13 115.09 48.13C113.48 48.13 111.97 47.82 110.57 47.21C109.16 46.6 108 45.71 107.08 44.55C105.77 42.96 104.97 40.94 104.66 38.5H100.97V47.67H97.3V22.13H100.97V34.82H104.63C104.93 32.37 105.75 30.35 107.08 28.74C108 27.58 109.16 26.7 110.57 26.09C111.98 25.49 113.48 25.19 115.09 25.19C116.7 25.19 118.2 25.49 119.6 26.09C121 26.69 122.16 27.57 123.1 28.74C123.98 29.82 124.61 31.01 125 32.33ZM121.72 36.65C121.72 34.21 121.2 32.32 120.16 31C119.61 30.25 118.9 29.67 118.02 29.27C117.14 28.87 116.21 28.68 115.21 28.68C114.15 28.68 113.16 28.87 112.24 29.26C111.32 29.65 110.58 30.23 110.01 31C108.99 32.3 108.46 34.19 108.42 36.65C108.46 39.08 108.99 40.96 110.01 42.31C110.54 43.07 111.25 43.64 112.13 44.04C113.02 44.44 113.96 44.64 114.96 44.64C116.04 44.64 117.03 44.45 117.94 44.06C118.85 43.67 119.59 43.09 120.16 42.32C121.21 40.94 121.72 39.06 121.72 36.65Z" fill="#233C7E"/>
<path d="M149.71 40.14C149.44 42.09 148.69 43.57 147.91 44.54C146.94 45.73 145.74 46.61 144.35 47.22C142.95 47.82 141.47 48.12 139.9 48.12C138.29 48.12 136.78 47.81 135.38 47.19C133.98 46.57 132.81 45.69 131.9 44.55C130.19 42.43 129.33 39.8 129.33 36.66C129.37 33.44 130.23 30.8 131.9 28.75C132.82 27.59 133.98 26.71 135.38 26.11C136.79 25.51 138.3 25.21 139.9 25.21C141.51 25.21 143.01 25.51 144.41 26.11C145.8 26.71 146.97 27.59 147.91 28.75C148.83 29.93 149.49 31.26 149.9 32.72H145.98C145.65 31.94 145.45 31.58 144.98 31.01C144.41 30.26 143.68 29.68 142.78 29.27C141.88 28.86 140.92 28.66 139.91 28.66C138.89 28.66 137.93 28.86 137.02 29.27C136.11 29.68 135.39 30.26 134.83 31.01C133.81 32.31 133.28 34.2 133.24 36.66C133.28 39.09 133.81 40.97 134.83 42.31C135.36 43.06 136.07 43.64 136.95 44.04C137.84 44.44 138.78 44.64 139.78 44.64C140.84 44.64 141.83 44.45 142.74 44.06C143.66 43.67 144.4 43.09 144.97 42.32C145.48 41.67 145.84 40.94 146.04 40.15H149.71V40.14Z" fill="#233C7E"/>
<path d="M27.21 18.73V39.49H23.54V22.19H6.70999V18.73H27.21Z" fill="#EB6608"/>
<path d="M46.74 15.14H31.07V0.129997H41.6C44.06 0.129997 46.74 1.86 46.74 5.4V15.14Z" fill="#EB6608"/>
<path d="M29.47 46.13H21.44C18.7 46.13 16.48 43.9 16.48 41.17V29.16H4.87C2.14 29.16 -0.0899963 26.93 -0.0899963 24.2V16.57C-0.0899963 13.83 2.14 11.61 4.87 11.61H16.48V0.120003H19.89V15.02H4.87C4.01 15.02 3.31 15.72 3.31 16.57V24.2C3.31 25.06 4.01 25.76 4.87 25.76H19.88V41.18C19.88 42.04 20.57 42.74 21.43 42.74H29.46C30.32 42.74 31.02 42.04 31.02 41.18V25.75H46.74V29.16H34.43V41.17C34.43 43.91 32.21 46.13 29.47 46.13Z" fill="#233C7E"/>
</g>
<defs>
<clipPath id="clip0_214_48">
<rect width="155" height="48" fill="white"/>
</clipPath>
</defs>
</svg>
